<svg width="24" height="24" viewBox="0 0 24 24" fill="none" xmlns="http://www.w3.org/2000/svg">
  <path d="M12.639 0.726562C12.3516 0.726562 12.0781 0.84375 11.8828 1.05469L1.05469 12.6406C0.84375 12.8516 0.726562 13.1406 0.726562 13.4453C0.726562 14.0859 1.24219 14.6016 1.88281 14.6016H8.35938V22.1172C8.35938 22.7578 8.875 23.2734 9.51562 23.2734C9.80312 23.2734 10.0766 23.1562 10.2719 22.9453L21.1 11.3594C21.3109 11.1484 21.4281 10.8594 21.4281 10.5547C21.4281 9.91406 20.9125 9.39844 20.2719 9.39844H13.7953V1.88281C13.7953 1.24219 13.2797 0.726562 12.639 0.726562Z" fill="#3ECF8E"/>
</svg>
